<svg xmlns="http://www.w3.org/2000/svg" xmlns:xlink="http://www.w3.org/1999/xlink" contentStyleType="text/css" data-diagram-type="CLASS" height="825px" preserveAspectRatio="none" style="width:2038px;height:825px;background:#FFFFFF;" version="1.1" viewBox="0 0 2038 825" width="2038px" zoomAndPan="magnify"><title>&lt;size:18&gt;Diagrama de Classes Lykos (Java OO)&lt;/size&gt;</title><defs/><g><g class="title" data-source-line="148"><text fill="#000000" font-family="sans-serif" font-size="18" font-weight="bold" lengthAdjust="spacing" textLength="378.4043" x="823.2079" y="26.708">Diagrama de Classes Lykos (Java OO)</text></g><g class="legend" data-source-line="141"><rect fill="#DDDDDD" height="75.1875" rx="7.5" ry="7.5" style="stroke:#000000;stroke-width:1;" width="109.6338" x="957.5931" y="53.9531"/><text fill="#FFDDDD" font-family="sans-serif" font-size="14" lengthAdjust="spacing" textLength="13.2275" x="962.5931" y="71.9482">&#9632;</text><text fill="#000000" font-family="sans-serif" font-size="14" lengthAdjust="spacing" textLength="41.877" x="980.2708" y="71.9482">Core |</text><text fill="#E8F5E9" font-family="sans-serif" font-size="14" lengthAdjust="spacing" textLength="13.2275" x="962.5931" y="88.2451">&#9632;</text><text fill="#000000" font-family="sans-serif" font-size="14" lengthAdjust="spacing" textLength="68.1543" x="980.2708" y="88.2451">Servi&#231;os |</text><text fill="#E3F2FD" font-family="sans-serif" font-size="14" lengthAdjust="spacing" textLength="13.2275" x="962.5931" y="104.542">&#9632;</text><text fill="#000000" font-family="sans-serif" font-size="14" lengthAdjust="spacing" textLength="81.9561" x="980.2708" y="104.542">Financeiro |</text><text fill="#FFEBEE" font-family="sans-serif" font-size="14" lengthAdjust="spacing" textLength="13.2275" x="962.5931" y="120.8389">&#9632;</text><text fill="#000000" font-family="sans-serif" font-size="14" lengthAdjust="spacing" textLength="75.0107" x="980.2708" y="120.8389">Reputa&#231;&#227;o</text></g><!--cluster Core--><g class="cluster" data-entity="Core" data-source-line="13" data-uid="ent0002" id="cluster_Core"><rect fill="#EEEEEE" height="410" rx="2.5" ry="2.5" style="stroke:#666666;stroke-width:1.5;" width="789.39" x="7" y="149.1406"/><text fill="#000000" font-family="sans-serif" font-size="14" font-weight="bold" lengthAdjust="spacing" textLength="36.292" x="383.549" y="164.1357">Core</text></g><!--cluster Servi?os--><g class="cluster" data-entity="Servi.os" data-source-line="52" data-uid="ent0006" id="cluster_Servi.os"><rect fill="#E8F5E9" height="229" rx="2.5" ry="2.5" style="stroke:#666666;stroke-width:1.5;" width="612.36" x="824.39" y="259.1406"/><text fill="#000000" font-family="sans-serif" font-size="14" font-weight="bold" lengthAdjust="spacing" textLength="66.6572" x="1097.2414" y="274.1357">Servi&#231;os</text></g><!--cluster Financeiro--><g class="cluster" data-entity="Financeiro" data-source-line="77" data-uid="ent0009" id="cluster_Financeiro"><rect fill="#E3F2FD" height="213" rx="2.5" ry="2.5" style="stroke:#666666;stroke-width:1.5;" width="299.67" x="1464.75" y="263.1406"/><text fill="#000000" font-family="sans-serif" font-size="14" font-weight="bold" lengthAdjust="spacing" textLength="82.8584" x="1573.1558" y="278.1357">Financeiro</text></g><!--cluster Reputa??o--><g class="cluster" data-entity="Reputa..o" data-source-line="91" data-uid="ent0011" id="cluster_Reputa..o"><rect fill="#FFEBEE" height="345" rx="2.5" ry="2.5" style="stroke:#666666;stroke-width:1.5;" width="240.4" x="1792.42" y="285.1406"/><text fill="#000000" font-family="sans-serif" font-size="14" font-weight="bold" lengthAdjust="spacing" textLength="83.7676" x="1870.7362" y="300.1357">Reputa&#231;&#227;o</text></g><!--class Usuario--><g class="entity" data-entity="Usuario" data-source-line="14" data-uid="ent0003" id="entity_Usuario"><rect fill="#F1F1F1" height="210.9688" rx="2.5" ry="2.5" style="stroke:#181818;stroke-width:0.5;" width="346.9199" x="23" y="258.6606"/><ellipse cx="167.5081" cy="274.6606" fill="#ADD1B2" rx="11" ry="11" style="stroke:#181818;stroke-width:1;"/><path d="M170.4768,280.3013 Q169.8987,280.5981 169.2581,280.7388 Q168.6174,280.895 167.9143,280.895 Q165.4143,280.895 164.0862,279.2544 Q162.7737,277.5981 162.7737,274.4731 Q162.7737,271.3481 164.0862,269.6919 Q165.4143,268.0356 167.9143,268.0356 Q168.6174,268.0356 169.2581,268.1919 Q169.9143,268.3481 170.4768,268.645 L170.4768,271.3638 Q169.8518,270.7856 169.2581,270.52 Q168.6643,270.2388 168.0393,270.2388 Q166.6956,270.2388 166.0081,271.3169 Q165.3206,272.3794 165.3206,274.4731 Q165.3206,276.5669 166.0081,277.645 Q166.6956,278.7075 168.0393,278.7075 Q168.6643,278.7075 169.2581,278.4419 Q169.8518,278.1606 170.4768,277.5825 L170.4768,280.3013 Z " fill="#000000"/><text fill="#000000" font-family="sans-serif" font-size="13" lengthAdjust="spacing" textLength="49.4038" x="188.0081" y="279.1611">Usuario</text><line style="stroke:#181818;stroke-width:0.5;" x1="24" x2="368.9199" y1="290.6606" y2="290.6606"/><rect fill="none" height="6" style="stroke:#C82930;stroke-width:1;" width="6" x="31" y="301.3091"/><text fill="#000000" font-family="sans-serif" font-size="14" lengthAdjust="spacing" textLength="56.0684" x="43" y="307.6557">id: Long</text><rect fill="none" height="6" style="stroke:#C82930;stroke-width:1;" width="6" x="31" y="317.6059"/><text fill="#000000" font-family="sans-serif" font-size="14" lengthAdjust="spacing" textLength="158.0605" x="43" y="323.9526">nomeCompleto: String</text><rect fill="none" height="6" style="stroke:#C82930;stroke-width:1;" width="6" x="31" y="333.9028"/><text fill="#000000" font-family="sans-serif" font-size="14" lengthAdjust="spacing" textLength="89.5576" x="43" y="340.2495">email: String</text><rect fill="none" height="6" style="stroke:#C82930;stroke-width:1;" width="6" x="31" y="350.1997"/><text fill="#000000" font-family="sans-serif" font-size="14" lengthAdjust="spacing" textLength="128.4541" x="43" y="356.5464">senhaHash: String</text><rect fill="none" height="6" style="stroke:#C82930;stroke-width:1;" width="6" x="31" y="366.4966"/><text fill="#000000" font-family="sans-serif" font-size="14" lengthAdjust="spacing" textLength="108.5342" x="43" y="372.8432">telefone: String</text><rect fill="none" height="6" style="stroke:#C82930;stroke-width:1;" width="6" x="31" y="382.7934"/><text fill="#000000" font-family="sans-serif" font-size="14" lengthAdjust="spacing" textLength="119.0957" x="43" y="389.1401">tipo: TipoUsuario</text><rect fill="none" height="6" style="stroke:#C82930;stroke-width:1;" width="6" x="31" y="399.0903"/><text fill="#000000" font-family="sans-serif" font-size="14" lengthAdjust="spacing" textLength="138.0791" x="43" y="405.437">status: StatusConta</text><line style="stroke:#181818;stroke-width:1;" x1="24" x2="368.9199" y1="412.7388" y2="412.7388"/><ellipse cx="34" cy="426.3872" fill="#84BE84" rx="3" ry="3" style="stroke:#038048;stroke-width:1;"/><text fill="#000000" font-family="sans-serif" font-size="14" lengthAdjust="spacing" textLength="241.083" x="43" y="429.7339">autenticar(senha: String): boolean</text><ellipse cx="34" cy="442.6841" fill="#84BE84" rx="3" ry="3" style="stroke:#038048;stroke-width:1;"/><text fill="#000000" font-family="sans-serif" font-size="14" lengthAdjust="spacing" textLength="320.9199" x="43" y="446.0307">adicionarEndereco(endereco: Endereco): void</text><ellipse cx="34" cy="458.9809" fill="#84BE84" rx="3" ry="3" style="stroke:#038048;stroke-width:1;"/><text fill="#000000" font-family="sans-serif" font-size="14" lengthAdjust="spacing" textLength="148.0527" x="43" y="462.3276">toDTO(): UsuarioDTO</text></g><!--class Freelancer--><g class="entity" data-entity="Freelancer" data-source-line="28" data-uid="ent0004" id="entity_Freelancer"><rect fill="#F1F1F1" height="178.375" rx="2.5" ry="2.5" style="stroke:#181818;stroke-width:0.5;" width="350.4746" x="429.92" y="364.9606"/><ellipse cx="566.3443" cy="380.9606" fill="#ADD1B2" rx="11" ry="11" style="stroke:#181818;stroke-width:1;"/><path d="M569.3131,386.6013 Q568.7349,386.8981 568.0943,387.0388 Q567.4537,387.195 566.7506,387.195 Q564.2506,387.195 562.9224,385.5544 Q561.6099,383.8981 561.6099,380.7731 Q561.6099,377.6481 562.9224,375.9919 Q564.2506,374.3356 566.7506,374.3356 Q567.4537,374.3356 568.0943,374.4919 Q568.7506,374.6481 569.3131,374.945 L569.3131,377.6638 Q568.6881,377.0856 568.0943,376.82 Q567.5006,376.5388 566.8756,376.5388 Q565.5318,376.5388 564.8443,377.6169 Q564.1568,378.6794 564.1568,380.7731 Q564.1568,382.8669 564.8443,383.945 Q565.5318,385.0075 566.8756,385.0075 Q567.5006,385.0075 568.0943,384.7419 Q568.6881,384.4606 569.3131,383.8825 L569.3131,386.6013 Z " fill="#000000"/><text fill="#000000" font-family="sans-serif" font-size="13" lengthAdjust="spacing" textLength="69.126" x="586.8443" y="385.4611">Freelancer</text><line style="stroke:#181818;stroke-width:0.5;" x1="430.92" x2="779.3946" y1="396.9606" y2="396.9606"/><rect fill="none" height="6" style="stroke:#C82930;stroke-width:1;" width="6" x="437.92" y="407.6091"/><text fill="#000000" font-family="sans-serif" font-size="14" lengthAdjust="spacing" textLength="56.0684" x="449.92" y="413.9557">id: Long</text><rect fill="none" height="6" style="stroke:#C82930;stroke-width:1;" width="6" x="437.92" y="423.9059"/><text fill="#000000" font-family="sans-serif" font-size="14" lengthAdjust="spacing" textLength="149.2764" x="449.92" y="430.2526">nomeExibicao: String</text><rect fill="none" height="6" style="stroke:#C82930;stroke-width:1;" width="6" x="437.92" y="440.2028"/><text fill="#000000" font-family="sans-serif" font-size="14" lengthAdjust="spacing" textLength="117.9268" x="449.92" y="446.5495">descricao: String</text><rect fill="none" height="6" style="stroke:#C82930;stroke-width:1;" width="6" x="437.92" y="456.4997"/><text fill="#000000" font-family="sans-serif" font-size="14" lengthAdjust="spacing" textLength="98.3896" x="449.92" y="462.8464">fotoUrl: String</text><rect fill="none" height="6" style="stroke:#C82930;stroke-width:1;" width="6" x="437.92" y="472.7966"/><text fill="#000000" font-family="sans-serif" font-size="14" lengthAdjust="spacing" textLength="132.3164" x="449.92" y="479.1432">status: StatusPerfil</text><line style="stroke:#181818;stroke-width:1;" x1="430.92" x2="779.3946" y1="486.445" y2="486.445"/><ellipse cx="440.92" cy="500.0934" fill="#84BE84" rx="3" ry="3" style="stroke:#038048;stroke-width:1;"/><text fill="#000000" font-family="sans-serif" font-size="14" lengthAdjust="spacing" textLength="232.4561" x="449.92" y="503.4401">calcularAvaliacaoMedia(): double</text><ellipse cx="440.92" cy="516.3903" fill="#84BE84" rx="3" ry="3" style="stroke:#038048;stroke-width:1;"/><text fill="#000000" font-family="sans-serif" font-size="14" lengthAdjust="spacing" textLength="324.4746" x="449.92" y="519.737">adicionarServico(servico: PacoteServico): void</text><ellipse cx="440.92" cy="532.6872" fill="#84BE84" rx="3" ry="3" style="stroke:#038048;stroke-width:1;"/><text fill="#000000" font-family="sans-serif" font-size="14" lengthAdjust="spacing" textLength="292.1816" x="449.92" y="536.0339">getServicosAtivos(): List&lt;PacoteServico&gt;</text></g><!--class Endereco--><g class="entity" data-entity="Endereco" data-source-line="40" data-uid="ent0005" id="entity_Endereco"><rect fill="#F1F1F1" height="145.7813" rx="2.5" ry="2.5" style="stroke:#181818;stroke-width:0.5;" width="215.0137" x="497.65" y="184.2506"/><ellipse cx="570.3333" cy="200.2506" fill="#ADD1B2" rx="11" ry="11" style="stroke:#181818;stroke-width:1;"/><path d="M573.3021,205.8913 Q572.724,206.1881 572.0833,206.3288 Q571.4427,206.485 570.7396,206.485 Q568.2396,206.485 566.9115,204.8444 Q565.599,203.1881 565.599,200.0631 Q565.599,196.9381 566.9115,195.2819 Q568.2396,193.6256 570.7396,193.6256 Q571.4427,193.6256 572.0833,193.7819 Q572.7396,193.9381 573.3021,194.235 L573.3021,196.9538 Q572.6771,196.3756 572.0833,196.11 Q571.4896,195.8288 570.8646,195.8288 Q569.5208,195.8288 568.8333,196.9069 Q568.1458,197.9694 568.1458,200.0631 Q568.1458,202.1569 568.8333,203.235 Q569.5208,204.2975 570.8646,204.2975 Q571.4896,204.2975 572.0833,204.0319 Q572.6771,203.7506 573.3021,203.1725 L573.3021,205.8913 Z " fill="#000000"/><text fill="#000000" font-family="sans-serif" font-size="13" lengthAdjust="spacing" textLength="61.147" x="590.8333" y="204.7511">Endereco</text><line style="stroke:#181818;stroke-width:0.5;" x1="498.65" x2="711.6637" y1="216.2506" y2="216.2506"/><rect fill="none" height="6" style="stroke:#C82930;stroke-width:1;" width="6" x="505.65" y="226.8991"/><text fill="#000000" font-family="sans-serif" font-size="14" lengthAdjust="spacing" textLength="56.0684" x="517.65" y="233.2457">id: Long</text><rect fill="none" height="6" style="stroke:#C82930;stroke-width:1;" width="6" x="505.65" y="243.1959"/><text fill="#000000" font-family="sans-serif" font-size="14" lengthAdjust="spacing" textLength="131.7422" x="517.65" y="249.5426">tipo: TipoEndereco</text><rect fill="none" height="6" style="stroke:#C82930;stroke-width:1;" width="6" x="505.65" y="259.4928"/><text fill="#000000" font-family="sans-serif" font-size="14" lengthAdjust="spacing" textLength="76.1455" x="517.65" y="265.8395">cep: String</text><rect fill="none" height="6" style="stroke:#C82930;stroke-width:1;" width="6" x="505.65" y="275.7897"/><text fill="#000000" font-family="sans-serif" font-size="14" lengthAdjust="spacing" textLength="127.2715" x="517.65" y="282.1364">logradouro: String</text><rect fill="none" height="6" style="stroke:#C82930;stroke-width:1;" width="6" x="505.65" y="292.0866"/><text fill="#000000" font-family="sans-serif" font-size="14" lengthAdjust="spacing" textLength="105.2666" x="517.65" y="298.4332">numero: String</text><line style="stroke:#181818;stroke-width:1;" x1="498.65" x2="711.6637" y1="305.735" y2="305.735"/><ellipse cx="508.65" cy="319.3834" fill="#84BE84" rx="3" ry="3" style="stroke:#038048;stroke-width:1;"/><text fill="#000000" font-family="sans-serif" font-size="14" lengthAdjust="spacing" textLength="189.0137" x="517.65" y="322.7301">formatarEndereco(): String</text></g><!--class PacoteServico--><g class="entity" data-entity="PacoteServico" data-source-line="53" data-uid="ent0007" id="entity_PacoteServico"><rect fill="#F1F1F1" height="178.375" rx="2.5" ry="2.5" style="stroke:#181818;stroke-width:0.5;" width="285.5674" x="840.39" y="293.9606"/><ellipse cx="932.9222" cy="309.9606" fill="#ADD1B2" rx="11" ry="11" style="stroke:#181818;stroke-width:1;"/><path d="M935.891,315.6013 Q935.3129,315.8981 934.6722,316.0388 Q934.0316,316.195 933.3285,316.195 Q930.8285,316.195 929.5004,314.5544 Q928.1879,312.8981 928.1879,309.7731 Q928.1879,306.6481 929.5004,304.9919 Q930.8285,303.3356 933.3285,303.3356 Q934.0316,303.3356 934.6722,303.4919 Q935.3285,303.6481 935.891,303.945 L935.891,306.6638 Q935.266,306.0856 934.6722,305.82 Q934.0785,305.5388 933.4535,305.5388 Q932.1097,305.5388 931.4222,306.6169 Q930.7347,307.6794 930.7347,309.7731 Q930.7347,311.8669 931.4222,312.945 Q932.1097,314.0075 933.4535,314.0075 Q934.0785,314.0075 934.6722,313.7419 Q935.266,313.4606 935.891,312.8825 L935.891,315.6013 Z " fill="#000000"/><text fill="#000000" font-family="sans-serif" font-size="13" lengthAdjust="spacing" textLength="92.0029" x="953.4222" y="314.4611">PacoteServico</text><line style="stroke:#181818;stroke-width:0.5;" x1="841.39" x2="1124.9574" y1="325.9606" y2="325.9606"/><rect fill="none" height="6" style="stroke:#C82930;stroke-width:1;" width="6" x="848.39" y="336.6091"/><text fill="#000000" font-family="sans-serif" font-size="14" lengthAdjust="spacing" textLength="56.0684" x="860.39" y="342.9557">id: Long</text><rect fill="none" height="6" style="stroke:#C82930;stroke-width:1;" width="6" x="848.39" y="352.9059"/><text fill="#000000" font-family="sans-serif" font-size="14" lengthAdjust="spacing" textLength="87.1445" x="860.39" y="359.2526">titulo: String</text><rect fill="none" height="6" style="stroke:#C82930;stroke-width:1;" width="6" x="848.39" y="369.2028"/><text fill="#000000" font-family="sans-serif" font-size="14" lengthAdjust="spacing" textLength="117.9268" x="860.39" y="375.5495">descricao: String</text><rect fill="none" height="6" style="stroke:#C82930;stroke-width:1;" width="6" x="848.39" y="385.4997"/><text fill="#000000" font-family="sans-serif" font-size="14" lengthAdjust="spacing" textLength="128.1533" x="860.39" y="391.8464">preco: BigDecimal</text><rect fill="none" height="6" style="stroke:#C82930;stroke-width:1;" width="6" x="848.39" y="401.7966"/><text fill="#000000" font-family="sans-serif" font-size="14" lengthAdjust="spacing" textLength="97.0977" x="860.39" y="408.1432">prazoDias: int</text><rect fill="none" height="6" style="stroke:#C82930;stroke-width:1;" width="6" x="848.39" y="418.0934"/><text fill="#000000" font-family="sans-serif" font-size="14" lengthAdjust="spacing" textLength="144.1836" x="860.39" y="424.4401">status: StatusPacote</text><line style="stroke:#181818;stroke-width:1;" x1="841.39" x2="1124.9574" y1="431.7419" y2="431.7419"/><ellipse cx="851.39" cy="445.3903" fill="#84BE84" rx="3" ry="3" style="stroke:#038048;stroke-width:1;"/><text fill="#000000" font-family="sans-serif" font-size="14" lengthAdjust="spacing" textLength="179.0059" x="860.39" y="448.737">estaDisponivel(): boolean</text><ellipse cx="851.39" cy="461.6872" fill="#84BE84" rx="3" ry="3" style="stroke:#038048;stroke-width:1;"/><text fill="#000000" font-family="sans-serif" font-size="14" lengthAdjust="spacing" textLength="259.5674" x="860.39" y="465.0339">calcularPrecoComTaxa(): BigDecimal</text></g><!--class Agendamento--><g class="entity" data-entity="Agendamento" data-source-line="65" data-uid="ent0008" id="entity_Agendamento"><rect fill="#F1F1F1" height="145.7813" rx="2.5" ry="2.5" style="stroke:#181818;stroke-width:0.5;" width="234.7832" x="1185.96" y="309.2506"/><ellipse cx="1253.3255" cy="325.2506" fill="#ADD1B2" rx="11" ry="11" style="stroke:#181818;stroke-width:1;"/><path d="M1256.2942,330.8913 Q1255.7161,331.1881 1255.0755,331.3288 Q1254.4349,331.485 1253.7317,331.485 Q1251.2317,331.485 1249.9036,329.8444 Q1248.5911,328.1881 1248.5911,325.0631 Q1248.5911,321.9381 1249.9036,320.2819 Q1251.2317,318.6256 1253.7317,318.6256 Q1254.4349,318.6256 1255.0755,318.7819 Q1255.7317,318.9381 1256.2942,319.235 L1256.2942,321.9538 Q1255.6692,321.3756 1255.0755,321.11 Q1254.4817,320.8288 1253.8567,320.8288 Q1252.513,320.8288 1251.8255,321.9069 Q1251.138,322.9694 1251.138,325.0631 Q1251.138,327.1569 1251.8255,328.235 Q1252.513,329.2975 1253.8567,329.2975 Q1254.4817,329.2975 1255.0755,329.0319 Q1255.6692,328.7506 1256.2942,328.1725 L1256.2942,330.8913 Z " fill="#000000"/><text fill="#000000" font-family="sans-serif" font-size="13" lengthAdjust="spacing" textLength="91.5522" x="1273.8255" y="329.7511">Agendamento</text><line style="stroke:#181818;stroke-width:0.5;" x1="1186.96" x2="1419.7432" y1="341.2506" y2="341.2506"/><rect fill="none" height="6" style="stroke:#C82930;stroke-width:1;" width="6" x="1193.96" y="351.8991"/><text fill="#000000" font-family="sans-serif" font-size="14" lengthAdjust="spacing" textLength="56.0684" x="1205.96" y="358.2457">id: Long</text><rect fill="none" height="6" style="stroke:#C82930;stroke-width:1;" width="6" x="1193.96" y="368.1959"/><text fill="#000000" font-family="sans-serif" font-size="14" lengthAdjust="spacing" textLength="150.6572" x="1205.96" y="374.5426">inicio: LocalDateTime</text><rect fill="none" height="6" style="stroke:#C82930;stroke-width:1;" width="6" x="1193.96" y="384.4928"/><text fill="#000000" font-family="sans-serif" font-size="14" lengthAdjust="spacing" textLength="136.3086" x="1205.96" y="390.8395">fim: LocalDateTime</text><rect fill="none" height="6" style="stroke:#C82930;stroke-width:1;" width="6" x="1193.96" y="400.7897"/><text fill="#000000" font-family="sans-serif" font-size="14" lengthAdjust="spacing" textLength="195.3916" x="1205.96" y="407.1364">status: StatusAgendamento</text><line style="stroke:#181818;stroke-width:1;" x1="1186.96" x2="1419.7432" y1="414.4381" y2="414.4381"/><ellipse cx="1196.96" cy="428.0866" fill="#84BE84" rx="3" ry="3" style="stroke:#038048;stroke-width:1;"/><text fill="#000000" font-family="sans-serif" font-size="14" lengthAdjust="spacing" textLength="208.7832" x="1205.96" y="431.4332">cancelar(motivo: String): void</text><ellipse cx="1196.96" cy="444.3834" fill="#84BE84" rx="3" ry="3" style="stroke:#038048;stroke-width:1;"/><text fill="#000000" font-family="sans-serif" font-size="14" lengthAdjust="spacing" textLength="181.2686" x="1205.96" y="447.7301">confirmarPresenca(): void</text></g><!--class Contratacao--><g class="entity" data-entity="Contratacao" data-source-line="78" data-uid="ent0010" id="entity_Contratacao"><rect fill="#F1F1F1" height="162.0781" rx="2.5" ry="2.5" style="stroke:#181818;stroke-width:0.5;" width="267.6777" x="1480.75" y="298.1106"/><ellipse cx="1570.4343" cy="314.1106" fill="#ADD1B2" rx="11" ry="11" style="stroke:#181818;stroke-width:1;"/><path d="M1573.4031,319.7513 Q1572.825,320.0481 1572.1843,320.1888 Q1571.5437,320.345 1570.8406,320.345 Q1568.3406,320.345 1567.0125,318.7044 Q1565.7,317.0481 1565.7,313.9231 Q1565.7,310.7981 1567.0125,309.1419 Q1568.3406,307.4856 1570.8406,307.4856 Q1571.5437,307.4856 1572.1843,307.6419 Q1572.8406,307.7981 1573.4031,308.095 L1573.4031,310.8138 Q1572.7781,310.2356 1572.1843,309.97 Q1571.5906,309.6888 1570.9656,309.6888 Q1569.6218,309.6888 1568.9343,310.7669 Q1568.2468,311.8294 1568.2468,313.9231 Q1568.2468,316.0169 1568.9343,317.095 Q1569.6218,318.1575 1570.9656,318.1575 Q1571.5906,318.1575 1572.1843,317.8919 Q1572.7781,317.6106 1573.4031,317.0325 L1573.4031,319.7513 Z " fill="#000000"/><text fill="#000000" font-family="sans-serif" font-size="13" lengthAdjust="spacing" textLength="79.8091" x="1590.9343" y="318.6111">Contratacao</text><line style="stroke:#181818;stroke-width:0.5;" x1="1481.75" x2="1747.4277" y1="330.1106" y2="330.1106"/><rect fill="none" height="6" style="stroke:#C82930;stroke-width:1;" width="6" x="1488.75" y="340.7591"/><text fill="#000000" font-family="sans-serif" font-size="14" lengthAdjust="spacing" textLength="56.0684" x="1500.75" y="347.1057">id: Long</text><rect fill="none" height="6" style="stroke:#C82930;stroke-width:1;" width="6" x="1488.75" y="357.0559"/><text fill="#000000" font-family="sans-serif" font-size="14" lengthAdjust="spacing" textLength="158.7852" x="1500.75" y="363.4026">valorTotal: BigDecimal</text><rect fill="none" height="6" style="stroke:#C82930;stroke-width:1;" width="6" x="1488.75" y="373.3528"/><text fill="#000000" font-family="sans-serif" font-size="14" lengthAdjust="spacing" textLength="196.0137" x="1500.75" y="379.6995">taxaPlataforma: BigDecimal</text><rect fill="none" height="6" style="stroke:#C82930;stroke-width:1;" width="6" x="1488.75" y="389.6497"/><text fill="#000000" font-family="sans-serif" font-size="14" lengthAdjust="spacing" textLength="176.4629" x="1500.75" y="395.9964">status: StatusPagamento</text><rect fill="none" height="6" style="stroke:#C82930;stroke-width:1;" width="6" x="1488.75" y="405.9466"/><text fill="#000000" font-family="sans-serif" font-size="14" lengthAdjust="spacing" textLength="194.79" x="1500.75" y="412.2932">metodo: MetodoPagamento</text><line style="stroke:#181818;stroke-width:1;" x1="1481.75" x2="1747.4277" y1="419.595" y2="419.595"/><ellipse cx="1491.75" cy="433.2434" fill="#84BE84" rx="3" ry="3" style="stroke:#038048;stroke-width:1;"/><text fill="#000000" font-family="sans-serif" font-size="14" lengthAdjust="spacing" textLength="241.6777" x="1500.75" y="436.5901">calcularValorLiquido(): BigDecimal</text><ellipse cx="1491.75" cy="449.5403" fill="#84BE84" rx="3" ry="3" style="stroke:#038048;stroke-width:1;"/><text fill="#000000" font-family="sans-serif" font-size="14" lengthAdjust="spacing" textLength="152.4414" x="1500.75" y="452.887">gerarRecibo(): Recibo</text></g><!--class Avaliacao--><g class="entity" data-entity="Avaliacao" data-source-line="92" data-uid="ent0012" id="entity_Avaliacao"><rect fill="#F1F1F1" height="113.1875" rx="2.5" ry="2.5" style="stroke:#181818;stroke-width:0.5;" width="183.0352" x="1821.1" y="320.5506"/><ellipse cx="1876.9625" cy="336.5506" fill="#ADD1B2" rx="11" ry="11" style="stroke:#181818;stroke-width:1;"/><path d="M1879.9313,342.1913 Q1879.3532,342.4881 1878.7125,342.6288 Q1878.0719,342.785 1877.3688,342.785 Q1874.8688,342.785 1873.5407,341.1444 Q1872.2282,339.4881 1872.2282,336.3631 Q1872.2282,333.2381 1873.5407,331.5819 Q1874.8688,329.9256 1877.3688,329.9256 Q1878.0719,329.9256 1878.7125,330.0819 Q1879.3688,330.2381 1879.9313,330.535 L1879.9313,333.2538 Q1879.3063,332.6756 1878.7125,332.41 Q1878.1188,332.1288 1877.4938,332.1288 Q1876.15,332.1288 1875.4625,333.2069 Q1874.775,334.2694 1874.775,336.3631 Q1874.775,338.4569 1875.4625,339.535 Q1876.15,340.5975 1877.4938,340.5975 Q1878.1188,340.5975 1878.7125,340.3319 Q1879.3063,340.0506 1879.9313,339.4725 L1879.9313,342.1913 Z " fill="#000000"/><text fill="#000000" font-family="sans-serif" font-size="13" lengthAdjust="spacing" textLength="62.8101" x="1897.4625" y="341.0511">Avaliacao</text><line style="stroke:#181818;stroke-width:0.5;" x1="1822.1" x2="2003.1352" y1="352.5506" y2="352.5506"/><rect fill="none" height="6" style="stroke:#C82930;stroke-width:1;" width="6" x="1829.1" y="363.1991"/><text fill="#000000" font-family="sans-serif" font-size="14" lengthAdjust="spacing" textLength="56.0684" x="1841.1" y="369.5457">id: Long</text><rect fill="none" height="6" style="stroke:#C82930;stroke-width:1;" width="6" x="1829.1" y="379.4959"/><text fill="#000000" font-family="sans-serif" font-size="14" lengthAdjust="spacing" textLength="58.9258" x="1841.1" y="385.8426">nota: int</text><rect fill="none" height="6" style="stroke:#C82930;stroke-width:1;" width="6" x="1829.1" y="395.7928"/><text fill="#000000" font-family="sans-serif" font-size="14" lengthAdjust="spacing" textLength="130.6143" x="1841.1" y="402.1395">comentario: String</text><line style="stroke:#181818;stroke-width:1;" x1="1822.1" x2="2003.1352" y1="409.4413" y2="409.4413"/><ellipse cx="1832.1" cy="423.0897" fill="#84BE84" rx="3" ry="3" style="stroke:#038048;stroke-width:1;"/><text fill="#000000" font-family="sans-serif" font-size="14" lengthAdjust="spacing" textLength="157.0352" x="1841.1" y="426.4364">validarNota(): boolean</text></g><!--class Portfolio--><g class="entity" data-entity="Portfolio" data-source-line="100" data-uid="ent0013" id="entity_Portfolio"><rect fill="#F1F1F1" height="145.7813" rx="2.5" ry="2.5" style="stroke:#181818;stroke-width:0.5;" width="208.3965" x="1808.42" y="468.2506"/><ellipse cx="1881.3971" cy="484.2506" fill="#ADD1B2" rx="11" ry="11" style="stroke:#181818;stroke-width:1;"/><path d="M1884.3658,489.8913 Q1883.7877,490.1881 1883.1471,490.3288 Q1882.5064,490.485 1881.8033,490.485 Q1879.3033,490.485 1877.9752,488.8444 Q1876.6627,487.1881 1876.6627,484.0631 Q1876.6627,480.9381 1877.9752,479.2819 Q1879.3033,477.6256 1881.8033,477.6256 Q1882.5064,477.6256 1883.1471,477.7819 Q1883.8033,477.9381 1884.3658,478.235 L1884.3658,480.9538 Q1883.7408,480.3756 1883.1471,480.11 Q1882.5533,479.8288 1881.9283,479.8288 Q1880.5846,479.8288 1879.8971,480.9069 Q1879.2096,481.9694 1879.2096,484.0631 Q1879.2096,486.1569 1879.8971,487.235 Q1880.5846,488.2975 1881.9283,488.2975 Q1882.5533,488.2975 1883.1471,488.0319 Q1883.7408,487.7506 1884.3658,487.1725 L1884.3658,489.8913 Z " fill="#000000"/><text fill="#000000" font-family="sans-serif" font-size="13" lengthAdjust="spacing" textLength="53.9424" x="1901.8971" y="488.7511">Portfolio</text><line style="stroke:#181818;stroke-width:0.5;" x1="1809.42" x2="2015.8165" y1="500.2506" y2="500.2506"/><rect fill="none" height="6" style="stroke:#C82930;stroke-width:1;" width="6" x="1816.42" y="510.8991"/><text fill="#000000" font-family="sans-serif" font-size="14" lengthAdjust="spacing" textLength="56.0684" x="1828.42" y="517.2457">id: Long</text><rect fill="none" height="6" style="stroke:#C82930;stroke-width:1;" width="6" x="1816.42" y="527.1959"/><text fill="#000000" font-family="sans-serif" font-size="14" lengthAdjust="spacing" textLength="87.1445" x="1828.42" y="533.5426">titulo: String</text><rect fill="none" height="6" style="stroke:#C82930;stroke-width:1;" width="6" x="1816.42" y="543.4928"/><text fill="#000000" font-family="sans-serif" font-size="14" lengthAdjust="spacing" textLength="117.9268" x="1828.42" y="549.8395">descricao: String</text><rect fill="none" height="6" style="stroke:#C82930;stroke-width:1;" width="6" x="1816.42" y="559.7897"/><text fill="#000000" font-family="sans-serif" font-size="14" lengthAdjust="spacing" textLength="140.54" x="1828.42" y="566.1364">tipoMidia: TipoMidia</text><rect fill="none" height="6" style="stroke:#C82930;stroke-width:1;" width="6" x="1816.42" y="576.0866"/><text fill="#000000" font-family="sans-serif" font-size="14" lengthAdjust="spacing" textLength="69.4668" x="1828.42" y="582.4332">url: String</text><line style="stroke:#181818;stroke-width:1;" x1="1809.42" x2="2015.8165" y1="589.735" y2="589.735"/><ellipse cx="1819.42" cy="603.3834" fill="#84BE84" rx="3" ry="3" style="stroke:#038048;stroke-width:1;"/><text fill="#000000" font-family="sans-serif" font-size="14" lengthAdjust="spacing" textLength="182.3965" x="1828.42" y="606.7301">getTipoConteudo(): String</text></g><!--class TipoUsuario--><g class="entity" data-entity="TipoUsuario" data-source-line="123" data-uid="ent0021" id="entity_TipoUsuario"><rect fill="#F1F1F1" height="80.5938" rx="2.5" ry="2.5" style="stroke:#181818;stroke-width:0.5;" width="109.1621" x="141.88" y="586.8506"/><ellipse cx="156.88" cy="602.8506" fill="#EB937F" rx="11" ry="11" style="stroke:#181818;stroke-width:1;"/><path d="M160.9894,608.8506 L153.2706,608.8506 L153.2706,596.46 L160.9894,596.46 L160.9894,598.6163 L155.7238,598.6163 L155.7238,601.2881 L160.4894,601.2881 L160.4894,603.4444 L155.7238,603.4444 L155.7238,606.6944 L160.9894,606.6944 L160.9894,608.8506 Z " fill="#000000"/><text fill="#000000" font-family="sans-serif" font-size="13" lengthAdjust="spacing" textLength="77.1621" x="170.88" y="607.3511">TipoUsuario</text><line style="stroke:#181818;stroke-width:0.5;" x1="142.88" x2="250.0421" y1="618.8506" y2="618.8506"/><text fill="#000000" font-family="sans-serif" font-size="14" lengthAdjust="spacing" textLength="58.4199" x="147.88" y="635.8457">CLIENTE</text><text fill="#000000" font-family="sans-serif" font-size="14" lengthAdjust="spacing" textLength="91.6699" x="147.88" y="652.1426">FREELANCER</text><line style="stroke:#181818;stroke-width:0.5;" x1="142.88" x2="250.0421" y1="659.4444" y2="659.4444"/></g><!--class StatusConta--><g class="entity" data-entity="StatusConta" data-source-line="128" data-uid="ent0022" id="entity_StatusConta"><rect fill="#F1F1F1" height="96.8906" rx="2.5" ry="2.5" style="stroke:#181818;stroke-width:0.5;" width="111.7583" x="140.58" y="702.7006"/><ellipse cx="155.58" cy="718.7006" fill="#EB937F" rx="11" ry="11" style="stroke:#181818;stroke-width:1;"/><path d="M159.6894,724.7006 L151.9706,724.7006 L151.9706,712.31 L159.6894,712.31 L159.6894,714.4663 L154.4238,714.4663 L154.4238,717.1381 L159.1894,717.1381 L159.1894,719.2944 L154.4238,719.2944 L154.4238,722.5444 L159.6894,722.5444 L159.6894,724.7006 Z " fill="#000000"/><text fill="#000000" font-family="sans-serif" font-size="13" lengthAdjust="spacing" textLength="79.7583" x="169.58" y="723.2011">StatusConta</text><line style="stroke:#181818;stroke-width:0.5;" x1="141.58" x2="251.3383" y1="734.7006" y2="734.7006"/><text fill="#000000" font-family="sans-serif" font-size="14" lengthAdjust="spacing" textLength="42.8545" x="146.58" y="751.6957">ATIVO</text><text fill="#000000" font-family="sans-serif" font-size="14" lengthAdjust="spacing" textLength="57.4561" x="146.58" y="767.9926">INATIVO</text><text fill="#000000" font-family="sans-serif" font-size="14" lengthAdjust="spacing" textLength="55.583" x="146.58" y="784.2895">BANIDO</text><line style="stroke:#181818;stroke-width:0.5;" x1="141.58" x2="251.3383" y1="791.5913" y2="791.5913"/></g><!--class StatusAgendamento--><g class="entity" data-entity="StatusAgendamento" data-source-line="134" data-uid="ent0023" id="entity_StatusAgendamento"><rect fill="#F1F1F1" height="96.8906" rx="2.5" ry="2.5" style="stroke:#181818;stroke-width:0.5;" width="164.9771" x="522.67" y="578.7006"/><ellipse cx="537.67" cy="594.7006" fill="#EB937F" rx="11" ry="11" style="stroke:#181818;stroke-width:1;"/><path d="M541.7794,600.7006 L534.0606,600.7006 L534.0606,588.31 L541.7794,588.31 L541.7794,590.4663 L536.5138,590.4663 L536.5138,593.1381 L541.2794,593.1381 L541.2794,595.2944 L536.5138,595.2944 L536.5138,598.5444 L541.7794,598.5444 L541.7794,600.7006 Z " fill="#000000"/><text fill="#000000" font-family="sans-serif" font-size="13" lengthAdjust="spacing" textLength="132.9771" x="551.67" y="599.2011">StatusAgendamento</text><line style="stroke:#181818;stroke-width:0.5;" x1="523.67" x2="686.6471" y1="610.7006" y2="610.7006"/><text fill="#000000" font-family="sans-serif" font-size="14" lengthAdjust="spacing" textLength="81.9014" x="528.67" y="627.6957">AGENDADO</text><text fill="#000000" font-family="sans-serif" font-size="14" lengthAdjust="spacing" textLength="96.6328" x="528.67" y="643.9926">CONFIRMADO</text><text fill="#000000" font-family="sans-serif" font-size="14" lengthAdjust="spacing" textLength="87.623" x="528.67" y="660.2895">CANCELADO</text><line style="stroke:#181818;stroke-width:0.5;" x1="523.67" x2="686.6471" y1="667.5913" y2="667.5913"/></g><!--reverse link Usuario to Endereco--><g class="link" data-entity-1="Usuario" data-entity-2="Endereco" data-source-line="112" data-uid="lnk14" id="link_Usuario_Endereco"><path codeLine="112" d="M382.38,294.3506 C425.5,294.3506 458.48,294.3506 497.39,294.3506" fill="none" id="Usuario-backto-Endereco" style="stroke:#336699;stroke-width:1;"/><polygon fill="#336699" points="370.38,294.3506,376.38,298.3506,382.38,294.3506,376.38,290.3506,370.38,294.3506" style="stroke:#336699;stroke-width:1;"/><text fill="#000000" font-family="sans-serif" font-size="13" lengthAdjust="spacing" textLength="8.271" x="377.8917" y="303.7923">1</text><text fill="#000000" font-family="sans-serif" font-size="13" lengthAdjust="spacing" textLength="23.0356" x="466.7506" y="309.286">0..*</text></g><!--link Usuario to Freelancer--><g class="link" data-entity-1="Usuario" data-entity-2="Freelancer" data-source-line="113" data-uid="lnk15" id="link_Usuario_Freelancer"><path codeLine="113" d="M370.38,417.2906 C389.93,417.2906 397.86,417.2906 417.44,417.2906" fill="none" id="Usuario-to-Freelancer" style="stroke:#336699;stroke-width:1;"/><polygon fill="none" points="429.44,417.2906,423.44,413.2906,417.44,417.2906,423.44,421.2906,429.44,417.2906" style="stroke:#336699;stroke-width:1;"/><text fill="#000000" font-family="sans-serif" font-size="13" lengthAdjust="spacing" textLength="8.271" x="377.8917" y="431.9188">1</text><text fill="#000000" font-family="sans-serif" font-size="13" lengthAdjust="spacing" textLength="24.8066" x="396.9523" y="428.0303">0..1</text></g><!--reverse link Freelancer to PacoteServico--><g class="link" data-entity-1="Freelancer" data-entity-2="PacoteServico" data-source-line="115" data-uid="lnk16" id="link_Freelancer_PacoteServico"><path codeLine="115" d="M792.89,418.6406 C812.75,418.6406 820.8,418.6406 840.17,418.6406" fill="none" id="Freelancer-backto-PacoteServico" style="stroke:#336699;stroke-width:1;"/><polygon fill="#336699" points="780.89,418.6406,786.89,422.6406,792.89,418.6406,786.89,414.6406,780.89,418.6406" style="stroke:#336699;stroke-width:1;"/><text fill="#000000" font-family="sans-serif" font-size="13" lengthAdjust="spacing" textLength="8.271" x="788.4782" y="429.5288">1</text><text fill="#000000" font-family="sans-serif" font-size="13" lengthAdjust="spacing" textLength="23.0356" x="809.2043" y="432.9277">0..*</text></g><!--reverse link Freelancer to Portfolio--><g class="link" data-entity-1="Freelancer" data-entity-2="Portfolio" data-source-line="116" data-uid="lnk17" id="link_Freelancer_Portfolio"><path codeLine="116" d="M792.81,507.8306 C1068.95,507.8306 1584.16,507.8306 1807.97,507.8306" fill="none" id="Freelancer-backto-Portfolio" style="stroke:#336699;stroke-width:1;"/><polygon fill="#336699" points="780.81,507.8306,786.81,511.8306,792.81,507.8306,786.81,503.8306,780.81,507.8306" style="stroke:#336699;stroke-width:1;"/><text fill="#000000" font-family="sans-serif" font-size="13" lengthAdjust="spacing" textLength="8.271" x="788.3948" y="522.4815">1</text><text fill="#000000" font-family="sans-serif" font-size="13" lengthAdjust="spacing" textLength="23.0356" x="1777.5304" y="518.2483">0..*</text></g><!--link PacoteServico to Agendamento--><g class="link" data-entity-1="PacoteServico" data-entity-2="Agendamento" data-source-line="118" data-uid="lnk18" id="link_PacoteServico_Agendamento"><path codeLine="118" d="M1126.41,382.1406 C1146.22,382.1406 1166.38,382.1406 1185.66,382.1406" fill="none" id="PacoteServico-Agendamento" style="stroke:#336699;stroke-width:1;"/><text fill="#000000" font-family="sans-serif" font-size="13" lengthAdjust="spacing" textLength="8.271" x="1134.0089" y="394.5457">1</text><text fill="#000000" font-family="sans-serif" font-size="13" lengthAdjust="spacing" textLength="23.0356" x="1154.7885" y="394.6686">0..*</text></g><!--link Agendamento to Contratacao--><g class="link" data-entity-1="Agendamento" data-entity-2="Contratacao" data-source-line="119" data-uid="lnk19" id="link_Agendamento_Contratacao"><path codeLine="119" d="M1421.02,382.1406 C1440.38,382.1406 1460.58,382.1406 1480.32,382.1406" fill="none" id="Agendamento-Contratacao" style="stroke:#336699;stroke-width:1;"/><text fill="#000000" font-family="sans-serif" font-size="13" lengthAdjust="spacing" textLength="8.271" x="1428.8231" y="394.6922">1</text><text fill="#000000" font-family="sans-serif" font-size="13" lengthAdjust="spacing" textLength="8.271" x="1464.3342" y="394.8179">1</text></g><!--link Contratacao to Avaliacao--><g class="link" data-entity-1="Contratacao" data-entity-2="Avaliacao" data-source-line="120" data-uid="lnk20" id="link_Contratacao_Avaliacao"><path codeLine="120" d="M1748.78,377.1406 C1773.19,377.1406 1798.14,377.1406 1820.97,377.1406" fill="none" id="Contratacao-Avaliacao" style="stroke:#336699;stroke-width:1;"/><text fill="#000000" font-family="sans-serif" font-size="13" lengthAdjust="spacing" textLength="8.271" x="1756.3447" y="389.5114">1</text><text fill="#000000" font-family="sans-serif" font-size="13" lengthAdjust="spacing" textLength="24.8066" x="1788.4201" y="389.8338">0..1</text></g><g class="footer" data-source-line="149"><text fill="#888888" font-family="sans-serif" font-size="10" lengthAdjust="spacing" textLength="146.7725" x="939.0238" y="814.8735">Para implementa&#231;&#227;o em Java</text></g><!--SRC=[hLRDZjis4BxhAGZdK6yA9zakkaWCmu1MFwqA_mYsT-zSYVOIIsbSYdApQNBg8M_GSu4UyY1-apv9XvHaKrexwQ4-cDJCyE_ZzmsdUEJvbagQaTyTGWJFcNhQCW9IFG0Q4a6B8eHSBVa7HYwlqBIboIFTiALw4en8bYYQRmGxEcv0fanw842I5zVNrvO7cus4CazhRn04wALImc-rvUhwdVF9SGHRAwA0IBvvK2JbUXaEkUDyHruSVYHslVag8F4YcdbHx4uidrClINeUIDOpXpDd8RT5IIK7Oo5aG7Ww91F8D_Ld3Xdp8DiAfc18bahoWujbb8kEhM3v0_sP5WyTks9u1CXPryotEEiA_-jjDDCegif21-lMGxnfvHcOvdj2IyLonHCg-sR9PjwB8Ra748pcJM3A4qIAoY37Ms09z5dT6PB6X8DsmDDwX09_DU-ZhTuIVg47Bw51B9IC2PedJ7uDjE0zlyVzTK5BMP784_OrABYLp-1iuH0pkUQY3KH2HL8AAjqT5PpYl5EMSggtdq9vRtZOWc79v8uZ2aNL3abC4r2iDhUHs31LsmjNyHqKUje9BzIeDMZSXgT1zHmunpjl8cj7mhQTumlOI8hda5sqyZ9ZNME3o1faHfLruHTMt2UjfbEYyGEo31PtqVxpV7bID-Qm-ozGz52dRyCVWtUMY5fud3-uAiL_vSEsekWDt_WiuHaL1plz03wdI0gUgzCqCPjfWy8mnEV55dA-OwB_J2ODZMAzBEfzHTyR4hNMjoxPtQ2CQ8OQF7jSdclAQHDExbF5LZnZ3TjvTjhHFecrIfVrA3_SRZy3JKnB_HPz4yZN7BcW3uL98Z47glrdUH16CtVc1T5YVf858S_rqbo2fi5L-4FeMpJGYKeYz_0wpw62CWMv0aN5YSjLY7eiS0B3uHC1tOlUsE2G37DqYc1CJTlnTXF6dTx8XFzQyXIUtNIbVadb0attnb_rlY6XHH3Vhjpzv_qVf-5Ri6sfwFxB_c-DNnW6Dq5WuNT8OkSJgw8syHFG9zHP-dGkqFEbLCvmM9lp5fLZVDlN8FZ_erkTtQOSKt2LuaotTfNTz3uuvbaTgzd3olHR2MiHJ5mlci_SQJ1RjPDLyvRtBdlavM10UczUlNhPEsJabdym0EF7xl51SnphSUlCqifnNujhy7ISTbgiLct2R6tRsQI9miQIasDBove8UmVIT70APhVJ5ZeCNmsxrZ3txKqYX56NNU4YG6HH-miDkGcsoWyJxAwYErqCO8weUpVkBFBddG7TvEZ-5CnyrzVntdmMHejf_Q5NcxZL-DRU9u4POkzUC3qhLYTRPvJeud28-l7nD_xdpxz6hurfJ7HrHpwIGqZrKhL23WyP-NWCCvci5NRCT5PSfTXMd2Lfn22jjkauA1eiXqS5bid3oxTZVB7mASyewePuMdQi89EdHzn4_nUwesG-lnYzri5ZPmt86TaCVJEEiHedN5UWHkjc9QmzYHvNZ_aN]--></g></svg>